<svg data-rule="BoundedContextRef" class="railroad-diagram railroad-svg" xmlns="http://www.w3.org/2000/svg" width="245" height="92" viewBox="0 0 245 92">

<g transform="translate(.5 .5)">
<path d="M 20 21 v 20 m 10 -20 v 20 m -10 -10 h 20.5"></path>
<g>
<path d="M40 31h0"></path>
<path d="M204 31h0"></path>
<path d="M40 31h20"></path>
<g>
<path d="M60 31h26"></path>
<path d="M158 31h26"></path>
<path d="M86 31h10"></path>
<g>
<path d="M96 31h0"></path>
<path d="M148 31h0"></path>
<rect x="96" y="20" width="52" height="22" rx="10" ry="10"></rect>
<text x="122" y="35">this</text>
</g>
<path d="M148 31h10"></path>
</g>
<path d="M184 31h20"></path>
<path d="M40 31a10 10 0 0 1 10 10v10a10 10 0 0 0 10 10"></path>
<g>
<path d="M60 61h0"></path>
<path d="M184 61h0"></path>
<rect x="60" y="50" width="124" height="22"></rect>
<text x="122" y="65">QualifiedName</text>
</g>
<path d="M184 61a10 10 0 0 0 10 -10v-10a10 10 0 0 1 10 -10"></path>
</g>
<path d="M 204 31 h 20 m -10 -10 v 20 m 10 -20 v 20"></path>
</g>
</svg>
