<svg data-rule="Classification" class="railroad-diagram railroad-svg" xmlns="http://www.w3.org/2000/svg" width="289" height="62" viewBox="0 0 289 62">

<g transform="translate(.5 .5)">
<path d="M 20 21 v 20 m 10 -20 v 20 m -10 -10 h 20.5"></path>
<g>
<path d="M40 31h0"></path>
<path d="M248 31h0"></path>
<path d="M40 31h10"></path>
<g>
<path d="M50 31h0"></path>
<path d="M182 31h0"></path>
<rect x="50" y="20" width="132" height="22" rx="10" ry="10"></rect>
<text x="116" y="35">Classification</text>
</g>
<path d="M182 31h10"></path>
<path d="M192 31h10"></path>
<g>
<path d="M202 31h0"></path>
<path d="M238 31h0"></path>
<rect x="202" y="20" width="36" height="22"></rect>
<text x="220" y="35">ID</text>
</g>
<path d="M238 31h10"></path>
</g>
<path d="M 248 31 h 20 m -10 -10 v 20 m 10 -20 v 20"></path>
</g>
</svg>
