<svg data-rule="ContextMap" class="railroad-diagram railroad-svg" xmlns="http://www.w3.org/2000/svg" width="1453" height="122" viewBox="0 0 1453 122">

<g transform="translate(.5 .5)">
<path d="M 20 51 v 20 m 10 -20 v 20 m -10 -10 h 20.5"></path>
<g>
<path d="M40 61h0"></path>
<path d="M1412 61h0"></path>
<g>
<path d="M40 61h0"></path>
<path d="M180 61h0"></path>
<path d="M40 61h20"></path>
<g>
<path d="M60 61h0"></path>
<path d="M160 61h0"></path>
<rect x="60" y="50" width="100" height="22" rx="10" ry="10"></rect>
<text x="110" y="65">ContextMap</text>
</g>
<path d="M160 61h20"></path>
<path d="M40 61a10 10 0 0 1 10 10v10a10 10 0 0 0 10 10"></path>
<g>
<path d="M60 91h24"></path>
<path d="M136 91h24"></path>
<rect x="84" y="80" width="52" height="22" rx="10" ry="10"></rect>
<text x="110" y="95">cmap</text>
</g>
<path d="M160 91a10 10 0 0 0 10 -10v-10a10 10 0 0 1 10 -10"></path>
</g>
<path d="M180 61h10"></path>
<g>
<path d="M190 61h0"></path>
<path d="M226 61h0"></path>
<rect x="190" y="50" width="36" height="22"></rect>
<text x="208" y="65">ID</text>
</g>
<path d="M226 61h10"></path>
<path d="M236 61h10"></path>
<g>
<path d="M246 61h0"></path>
<path d="M274 61h0"></path>
<rect x="246" y="50" width="28" height="22" rx="10" ry="10"></rect>
<text x="260" y="65">{</text>
</g>
<path d="M274 61h10"></path>
<g>
<path d="M284 61h0"></path>
<path d="M884 61h0"></path>
<path d="M284 61a10 10 0 0 0 10 -10v-19a10 10 0 0 1 10 -10"></path>
<g>
<path d="M304 22h560"></path>
</g>
<path d="M864 22a10 10 0 0 1 10 10v19a10 10 0 0 0 10 10"></path>
<path d="M284 61h20"></path>
<g>
<path d="M304 61h0"></path>
<path d="M864 61h0"></path>
<path d="M304 61h10"></path>
<g>
<path d="M314 61h0"></path>
<path d="M854 61h0"></path>
<g>
<path d="M314 61h0"></path>
<path d="M854 61h0"></path>
<path d="M314 61h10"></path>
<g>
<path d="M324 61h0"></path>
<path d="M408 61h0"></path>
<rect x="324" y="50" width="84" height="22" rx="10" ry="10"></rect>
<text x="366" y="65">contains</text>
</g>
<path d="M408 61h10"></path>
<path d="M418 61h10"></path>
<g>
<path d="M428 61h0"></path>
<path d="M552 61h0"></path>
<rect x="428" y="50" width="124" height="22"></rect>
<text x="490" y="65">QualifiedName</text>
</g>
<path d="M552 61h10"></path>
<g>
<path d="M562 61h0"></path>
<path d="M854 61h0"></path>
<path d="M562 61a10 10 0 0 0 10 -10v-9a10 10 0 0 1 10 -10"></path>
<g>
<path d="M582 32h252"></path>
</g>
<path d="M834 32a10 10 0 0 1 10 10v9a10 10 0 0 0 10 10"></path>
<path d="M562 61h20"></path>
<g>
<path d="M582 61h0"></path>
<path d="M834 61h0"></path>
<path d="M582 61h10"></path>
<g>
<path d="M592 61h0"></path>
<path d="M824 61h0"></path>
<g>
<path d="M592 61h0"></path>
<path d="M824 61h0"></path>
<g>
<path d="M592 61h0"></path>
<path d="M680 61h0"></path>
<path d="M592 61a10 10 0 0 0 10 -10v0a10 10 0 0 1 10 -10"></path>
<g>
<path d="M612 41h48"></path>
</g>
<path d="M660 41a10 10 0 0 1 10 10v0a10 10 0 0 0 10 10"></path>
<path d="M592 61h20"></path>
<g>
<path d="M612 61h0"></path>
<path d="M660 61h0"></path>
<path d="M612 61h10"></path>
<g>
<path d="M622 61h0"></path>
<path d="M650 61h0"></path>
<rect x="622" y="50" width="28" height="22" rx="10" ry="10"></rect>
<text x="636" y="65">,</text>
</g>
<path d="M650 61h10"></path>
</g>
<path d="M660 61h20"></path>
</g>
<path d="M680 61h10"></path>
<g>
<path d="M690 61h0"></path>
<path d="M814 61h0"></path>
<rect x="690" y="50" width="124" height="22"></rect>
<text x="752" y="65">QualifiedName</text>
</g>
<path d="M814 61h10"></path>
</g>
</g>
<path d="M824 61h10"></path>
<path d="M592 61a10 10 0 0 0 -10 10v0a10 10 0 0 0 10 10"></path>
<g>
<path d="M592 81h232"></path>
</g>
<path d="M824 81a10 10 0 0 0 10 -10v0a10 10 0 0 0 -10 -10"></path>
</g>
<path d="M834 61h20"></path>
</g>
</g>
</g>
<path d="M854 61h10"></path>
<path d="M314 61a10 10 0 0 0 -10 10v8a10 10 0 0 0 10 10"></path>
<g>
<path d="M314 89h540"></path>
</g>
<path d="M854 89a10 10 0 0 0 10 -10v-8a10 10 0 0 0 -10 -10"></path>
</g>
<path d="M864 61h20"></path>
</g>
<g>
<path d="M884 61h0"></path>
<path d="M1364 61h0"></path>
<path d="M884 61a10 10 0 0 0 10 -10v-19a10 10 0 0 1 10 -10"></path>
<g>
<path d="M904 22h440"></path>
</g>
<path d="M1344 22a10 10 0 0 1 10 10v19a10 10 0 0 0 10 10"></path>
<path d="M884 61h20"></path>
<g>
<path d="M904 61h0"></path>
<path d="M1344 61h0"></path>
<path d="M904 61h10"></path>
<g>
<path d="M914 61h0"></path>
<path d="M1334 61h0"></path>
<g>
<path d="M914 61h0"></path>
<path d="M1334 61h0"></path>
<path d="M914 61h10"></path>
<g>
<path d="M924 61h0"></path>
<path d="M1040 61h0"></path>
<rect x="924" y="50" width="116" height="22"></rect>
<text x="982" y="65">Relationship</text>
</g>
<path d="M1040 61h10"></path>
<g>
<path d="M1050 61h0"></path>
<path d="M1334 61h0"></path>
<path d="M1050 61a10 10 0 0 0 10 -10v-9a10 10 0 0 1 10 -10"></path>
<g>
<path d="M1070 32h244"></path>
</g>
<path d="M1314 32a10 10 0 0 1 10 10v9a10 10 0 0 0 10 10"></path>
<path d="M1050 61h20"></path>
<g>
<path d="M1070 61h0"></path>
<path d="M1314 61h0"></path>
<path d="M1070 61h10"></path>
<g>
<path d="M1080 61h0"></path>
<path d="M1304 61h0"></path>
<g>
<path d="M1080 61h0"></path>
<path d="M1304 61h0"></path>
<g>
<path d="M1080 61h0"></path>
<path d="M1168 61h0"></path>
<path d="M1080 61a10 10 0 0 0 10 -10v0a10 10 0 0 1 10 -10"></path>
<g>
<path d="M1100 41h48"></path>
</g>
<path d="M1148 41a10 10 0 0 1 10 10v0a10 10 0 0 0 10 10"></path>
<path d="M1080 61h20"></path>
<g>
<path d="M1100 61h0"></path>
<path d="M1148 61h0"></path>
<path d="M1100 61h10"></path>
<g>
<path d="M1110 61h0"></path>
<path d="M1138 61h0"></path>
<rect x="1110" y="50" width="28" height="22" rx="10" ry="10"></rect>
<text x="1124" y="65">,</text>
</g>
<path d="M1138 61h10"></path>
</g>
<path d="M1148 61h20"></path>
</g>
<path d="M1168 61h10"></path>
<g>
<path d="M1178 61h0"></path>
<path d="M1294 61h0"></path>
<rect x="1178" y="50" width="116" height="22"></rect>
<text x="1236" y="65">Relationship</text>
</g>
<path d="M1294 61h10"></path>
</g>
</g>
<path d="M1304 61h10"></path>
<path d="M1080 61a10 10 0 0 0 -10 10v0a10 10 0 0 0 10 10"></path>
<g>
<path d="M1080 81h224"></path>
</g>
<path d="M1304 81a10 10 0 0 0 10 -10v0a10 10 0 0 0 -10 -10"></path>
</g>
<path d="M1314 61h20"></path>
</g>
</g>
</g>
<path d="M1334 61h10"></path>
<path d="M914 61a10 10 0 0 0 -10 10v8a10 10 0 0 0 10 10"></path>
<g>
<path d="M914 89h420"></path>
</g>
<path d="M1334 89a10 10 0 0 0 10 -10v-8a10 10 0 0 0 -10 -10"></path>
</g>
<path d="M1344 61h20"></path>
</g>
<path d="M1364 61h10"></path>
<g>
<path d="M1374 61h0"></path>
<path d="M1402 61h0"></path>
<rect x="1374" y="50" width="28" height="22" rx="10" ry="10"></rect>
<text x="1388" y="65">}</text>
</g>
<path d="M1402 61h10"></path>
</g>
<path d="M 1412 61 h 20 m -10 -10 v 20 m 10 -20 v 20"></path>
</g>
</svg>
