<svg data-rule="DomainTerm" class="railroad-diagram railroad-svg" xmlns="http://www.w3.org/2000/svg" width="1609" height="112" viewBox="0 0 1609 112">

<g transform="translate(.5 .5)">
<path d="M 20 41 v 20 m 10 -20 v 20 m -10 -10 h 20.5"></path>
<g>
<path d="M40 51h0"></path>
<path d="M1568 51h0"></path>
<g>
<path d="M40 51h0"></path>
<path d="M132 51h0"></path>
<path d="M40 51h20"></path>
<g>
<path d="M60 51h0"></path>
<path d="M112 51h0"></path>
<rect x="60" y="40" width="52" height="22" rx="10" ry="10"></rect>
<text x="86" y="55">Term</text>
</g>
<path d="M112 51h20"></path>
<path d="M40 51a10 10 0 0 1 10 10v10a10 10 0 0 0 10 10"></path>
<g>
<path d="M60 81h0"></path>
<path d="M112 81h0"></path>
<rect x="60" y="70" width="52" height="22" rx="10" ry="10"></rect>
<text x="86" y="85">term</text>
</g>
<path d="M112 81a10 10 0 0 0 10 -10v-10a10 10 0 0 1 10 -10"></path>
</g>
<path d="M132 51h10"></path>
<g>
<path d="M142 51h0"></path>
<path d="M178 51h0"></path>
<rect x="142" y="40" width="36" height="22"></rect>
<text x="160" y="55">ID</text>
</g>
<path d="M178 51h10"></path>
<g>
<path d="M188 51h0"></path>
<path d="M436 51h0"></path>
<path d="M188 51a10 10 0 0 0 10 -10v0a10 10 0 0 1 10 -10"></path>
<g>
<path d="M208 31h208"></path>
</g>
<path d="M416 31a10 10 0 0 1 10 10v0a10 10 0 0 0 10 10"></path>
<path d="M188 51h20"></path>
<g>
<path d="M208 51h0"></path>
<path d="M416 51h0"></path>
<g>
<path d="M208 51h0"></path>
<path d="M416 51h0"></path>
<path d="M208 51h10"></path>
<g>
<path d="M218 51h0"></path>
<path d="M318 51h0"></path>
<rect x="218" y="40" width="100" height="22"></rect>
<text x="268" y="55">Assignment</text>
</g>
<path d="M318 51h10"></path>
<path d="M328 51h10"></path>
<g>
<path d="M338 51h0"></path>
<path d="M406 51h0"></path>
<rect x="338" y="40" width="68" height="22"></rect>
<text x="372" y="55">STRING</text>
</g>
<path d="M406 51h10"></path>
</g>
</g>
<path d="M416 51h20"></path>
</g>
<g>
<path d="M436 51h0"></path>
<path d="M980 51h0"></path>
<path d="M436 51a10 10 0 0 0 10 -10v-9a10 10 0 0 1 10 -10"></path>
<g>
<path d="M456 22h504"></path>
</g>
<path d="M960 22a10 10 0 0 1 10 10v9a10 10 0 0 0 10 10"></path>
<path d="M436 51h20"></path>
<g>
<path d="M456 51h0"></path>
<path d="M960 51h0"></path>
<g>
<path d="M456 51h0"></path>
<path d="M960 51h0"></path>
<g>
<path d="M456 51h0"></path>
<path d="M580 51h0"></path>
<path d="M456 51h20"></path>
<g>
<path d="M476 51h20"></path>
<path d="M540 51h20"></path>
<rect x="496" y="40" width="44" height="22" rx="10" ry="10"></rect>
<text x="518" y="55">aka</text>
</g>
<path d="M560 51h20"></path>
<path d="M456 51a10 10 0 0 1 10 10v10a10 10 0 0 0 10 10"></path>
<g>
<path d="M476 81h0"></path>
<path d="M560 81h0"></path>
<rect x="476" y="70" width="84" height="22" rx="10" ry="10"></rect>
<text x="518" y="85">synonyms</text>
</g>
<path d="M560 81a10 10 0 0 0 10 -10v-10a10 10 0 0 1 10 -10"></path>
</g>
<g>
<path d="M580 51h0"></path>
<path d="M740 51h0"></path>
<path d="M580 51a10 10 0 0 0 10 -10v0a10 10 0 0 1 10 -10"></path>
<g>
<path d="M600 31h120"></path>
</g>
<path d="M720 31a10 10 0 0 1 10 10v0a10 10 0 0 0 10 10"></path>
<path d="M580 51h20"></path>
<g>
<path d="M600 51h0"></path>
<path d="M720 51h0"></path>
<path d="M600 51h10"></path>
<g>
<path d="M610 51h0"></path>
<path d="M710 51h0"></path>
<rect x="610" y="40" width="100" height="22"></rect>
<text x="660" y="55">Assignment</text>
</g>
<path d="M710 51h10"></path>
</g>
<path d="M720 51h20"></path>
</g>
<path d="M740 51h10"></path>
<g>
<path d="M750 51h0"></path>
<path d="M786 51h0"></path>
<rect x="750" y="40" width="36" height="22"></rect>
<text x="768" y="55">ID</text>
</g>
<path d="M786 51h10"></path>
<g>
<path d="M796 51h0"></path>
<path d="M960 51h0"></path>
<path d="M796 51a10 10 0 0 0 10 -10v0a10 10 0 0 1 10 -10"></path>
<g>
<path d="M816 31h124"></path>
</g>
<path d="M940 31a10 10 0 0 1 10 10v0a10 10 0 0 0 10 10"></path>
<path d="M796 51h20"></path>
<g>
<path d="M816 51h0"></path>
<path d="M940 51h0"></path>
<path d="M816 51h10"></path>
<g>
<path d="M826 51h0"></path>
<path d="M930 51h0"></path>
<g>
<path d="M826 51h0"></path>
<path d="M930 51h0"></path>
<path d="M826 51h10"></path>
<g>
<path d="M836 51h0"></path>
<path d="M864 51h0"></path>
<rect x="836" y="40" width="28" height="22" rx="10" ry="10"></rect>
<text x="850" y="55">,</text>
</g>
<path d="M864 51h10"></path>
<path d="M874 51h10"></path>
<g>
<path d="M884 51h0"></path>
<path d="M920 51h0"></path>
<rect x="884" y="40" width="36" height="22"></rect>
<text x="902" y="55">ID</text>
</g>
<path d="M920 51h10"></path>
</g>
</g>
<path d="M930 51h10"></path>
<path d="M826 51a10 10 0 0 0 -10 10v0a10 10 0 0 0 10 10"></path>
<g>
<path d="M826 71h104"></path>
</g>
<path d="M930 71a10 10 0 0 0 10 -10v0a10 10 0 0 0 -10 -10"></path>
</g>
<path d="M940 51h20"></path>
</g>
</g>
</g>
<path d="M960 51h20"></path>
</g>
<g>
<path d="M980 51h0"></path>
<path d="M1568 51h0"></path>
<path d="M980 51a10 10 0 0 0 10 -10v-9a10 10 0 0 1 10 -10"></path>
<g>
<path d="M1000 22h548"></path>
</g>
<path d="M1548 22a10 10 0 0 1 10 10v9a10 10 0 0 0 10 10"></path>
<path d="M980 51h20"></path>
<g>
<path d="M1000 51h0"></path>
<path d="M1548 51h0"></path>
<g>
<path d="M1000 51h0"></path>
<path d="M1548 51h0"></path>
<path d="M1000 51h10"></path>
<g>
<path d="M1010 51h0"></path>
<path d="M1094 51h0"></path>
<rect x="1010" y="40" width="84" height="22" rx="10" ry="10"></rect>
<text x="1052" y="55">examples</text>
</g>
<path d="M1094 51h10"></path>
<g>
<path d="M1104 51h0"></path>
<path d="M1264 51h0"></path>
<path d="M1104 51a10 10 0 0 0 10 -10v0a10 10 0 0 1 10 -10"></path>
<g>
<path d="M1124 31h120"></path>
</g>
<path d="M1244 31a10 10 0 0 1 10 10v0a10 10 0 0 0 10 10"></path>
<path d="M1104 51h20"></path>
<g>
<path d="M1124 51h0"></path>
<path d="M1244 51h0"></path>
<path d="M1124 51h10"></path>
<g>
<path d="M1134 51h0"></path>
<path d="M1234 51h0"></path>
<rect x="1134" y="40" width="100" height="22"></rect>
<text x="1184" y="55">Assignment</text>
</g>
<path d="M1234 51h10"></path>
</g>
<path d="M1244 51h20"></path>
</g>
<path d="M1264 51h10"></path>
<g>
<path d="M1274 51h0"></path>
<path d="M1342 51h0"></path>
<rect x="1274" y="40" width="68" height="22"></rect>
<text x="1308" y="55">STRING</text>
</g>
<path d="M1342 51h10"></path>
<g>
<path d="M1352 51h0"></path>
<path d="M1548 51h0"></path>
<path d="M1352 51a10 10 0 0 0 10 -10v0a10 10 0 0 1 10 -10"></path>
<g>
<path d="M1372 31h156"></path>
</g>
<path d="M1528 31a10 10 0 0 1 10 10v0a10 10 0 0 0 10 10"></path>
<path d="M1352 51h20"></path>
<g>
<path d="M1372 51h0"></path>
<path d="M1528 51h0"></path>
<path d="M1372 51h10"></path>
<g>
<path d="M1382 51h0"></path>
<path d="M1518 51h0"></path>
<g>
<path d="M1382 51h0"></path>
<path d="M1518 51h0"></path>
<path d="M1382 51h10"></path>
<g>
<path d="M1392 51h0"></path>
<path d="M1420 51h0"></path>
<rect x="1392" y="40" width="28" height="22" rx="10" ry="10"></rect>
<text x="1406" y="55">,</text>
</g>
<path d="M1420 51h10"></path>
<path d="M1430 51h10"></path>
<g>
<path d="M1440 51h0"></path>
<path d="M1508 51h0"></path>
<rect x="1440" y="40" width="68" height="22"></rect>
<text x="1474" y="55">STRING</text>
</g>
<path d="M1508 51h10"></path>
</g>
</g>
<path d="M1518 51h10"></path>
<path d="M1382 51a10 10 0 0 0 -10 10v0a10 10 0 0 0 10 10"></path>
<g>
<path d="M1382 71h136"></path>
</g>
<path d="M1518 71a10 10 0 0 0 10 -10v0a10 10 0 0 0 -10 -10"></path>
</g>
<path d="M1528 51h20"></path>
</g>
</g>
</g>
<path d="M1548 51h20"></path>
</g>
</g>
<path d="M 1568 51 h 20 m -10 -10 v 20 m 10 -20 v 20"></path>
</g>
</svg>
