<svg data-rule="DomainMap" class="railroad-diagram railroad-svg" xmlns="http://www.w3.org/2000/svg" width="965" height="122" viewBox="0 0 965 122">

<g transform="translate(.5 .5)">
<path d="M 20 51 v 20 m 10 -20 v 20 m -10 -10 h 20.5"></path>
<g>
<path d="M40 61h0"></path>
<path d="M924 61h0"></path>
<g>
<path d="M40 61h0"></path>
<path d="M172 61h0"></path>
<path d="M40 61h20"></path>
<g>
<path d="M60 61h0"></path>
<path d="M152 61h0"></path>
<rect x="60" y="50" width="92" height="22" rx="10" ry="10"></rect>
<text x="106" y="65">DomainMap</text>
</g>
<path d="M152 61h20"></path>
<path d="M40 61a10 10 0 0 1 10 10v10a10 10 0 0 0 10 10"></path>
<g>
<path d="M60 91h20"></path>
<path d="M132 91h20"></path>
<rect x="80" y="80" width="52" height="22" rx="10" ry="10"></rect>
<text x="106" y="95">dmap</text>
</g>
<path d="M152 91a10 10 0 0 0 10 -10v-10a10 10 0 0 1 10 -10"></path>
</g>
<path d="M172 61h10"></path>
<g>
<path d="M182 61h0"></path>
<path d="M218 61h0"></path>
<rect x="182" y="50" width="36" height="22"></rect>
<text x="200" y="65">ID</text>
</g>
<path d="M218 61h10"></path>
<path d="M228 61h10"></path>
<g>
<path d="M238 61h0"></path>
<path d="M266 61h0"></path>
<rect x="238" y="50" width="28" height="22" rx="10" ry="10"></rect>
<text x="252" y="65">{</text>
</g>
<path d="M266 61h10"></path>
<g>
<path d="M276 61h0"></path>
<path d="M876 61h0"></path>
<path d="M276 61a10 10 0 0 0 10 -10v-19a10 10 0 0 1 10 -10"></path>
<g>
<path d="M296 22h560"></path>
</g>
<path d="M856 22a10 10 0 0 1 10 10v19a10 10 0 0 0 10 10"></path>
<path d="M276 61h20"></path>
<g>
<path d="M296 61h0"></path>
<path d="M856 61h0"></path>
<path d="M296 61h10"></path>
<g>
<path d="M306 61h0"></path>
<path d="M846 61h0"></path>
<g>
<path d="M306 61h0"></path>
<path d="M846 61h0"></path>
<path d="M306 61h10"></path>
<g>
<path d="M316 61h0"></path>
<path d="M400 61h0"></path>
<rect x="316" y="50" width="84" height="22" rx="10" ry="10"></rect>
<text x="358" y="65">contains</text>
</g>
<path d="M400 61h10"></path>
<path d="M410 61h10"></path>
<g>
<path d="M420 61h0"></path>
<path d="M544 61h0"></path>
<rect x="420" y="50" width="124" height="22"></rect>
<text x="482" y="65">QualifiedName</text>
</g>
<path d="M544 61h10"></path>
<g>
<path d="M554 61h0"></path>
<path d="M846 61h0"></path>
<path d="M554 61a10 10 0 0 0 10 -10v-9a10 10 0 0 1 10 -10"></path>
<g>
<path d="M574 32h252"></path>
</g>
<path d="M826 32a10 10 0 0 1 10 10v9a10 10 0 0 0 10 10"></path>
<path d="M554 61h20"></path>
<g>
<path d="M574 61h0"></path>
<path d="M826 61h0"></path>
<path d="M574 61h10"></path>
<g>
<path d="M584 61h0"></path>
<path d="M816 61h0"></path>
<g>
<path d="M584 61h0"></path>
<path d="M816 61h0"></path>
<g>
<path d="M584 61h0"></path>
<path d="M672 61h0"></path>
<path d="M584 61a10 10 0 0 0 10 -10v0a10 10 0 0 1 10 -10"></path>
<g>
<path d="M604 41h48"></path>
</g>
<path d="M652 41a10 10 0 0 1 10 10v0a10 10 0 0 0 10 10"></path>
<path d="M584 61h20"></path>
<g>
<path d="M604 61h0"></path>
<path d="M652 61h0"></path>
<path d="M604 61h10"></path>
<g>
<path d="M614 61h0"></path>
<path d="M642 61h0"></path>
<rect x="614" y="50" width="28" height="22" rx="10" ry="10"></rect>
<text x="628" y="65">,</text>
</g>
<path d="M642 61h10"></path>
</g>
<path d="M652 61h20"></path>
</g>
<path d="M672 61h10"></path>
<g>
<path d="M682 61h0"></path>
<path d="M806 61h0"></path>
<rect x="682" y="50" width="124" height="22"></rect>
<text x="744" y="65">QualifiedName</text>
</g>
<path d="M806 61h10"></path>
</g>
</g>
<path d="M816 61h10"></path>
<path d="M584 61a10 10 0 0 0 -10 10v0a10 10 0 0 0 10 10"></path>
<g>
<path d="M584 81h232"></path>
</g>
<path d="M816 81a10 10 0 0 0 10 -10v0a10 10 0 0 0 -10 -10"></path>
</g>
<path d="M826 61h20"></path>
</g>
</g>
</g>
<path d="M846 61h10"></path>
<path d="M306 61a10 10 0 0 0 -10 10v8a10 10 0 0 0 10 10"></path>
<g>
<path d="M306 89h540"></path>
</g>
<path d="M846 89a10 10 0 0 0 10 -10v-8a10 10 0 0 0 -10 -10"></path>
</g>
<path d="M856 61h20"></path>
</g>
<path d="M876 61h10"></path>
<g>
<path d="M886 61h0"></path>
<path d="M914 61h0"></path>
<rect x="886" y="50" width="28" height="22" rx="10" ry="10"></rect>
<text x="900" y="65">}</text>
</g>
<path d="M914 61h10"></path>
</g>
<path d="M 924 61 h 20 m -10 -10 v 20 m 10 -20 v 20"></path>
</g>
</svg>
