<svg data-rule="IntegrationPattern" class="railroad-diagram railroad-svg" xmlns="http://www.w3.org/2000/svg" width="293" height="452" viewBox="0 0 293 452">

<g transform="translate(.5 .5)">
<path d="M 20 21 v 20 m 10 -20 v 20 m -10 -10 h 20.5"></path>
<g>
<path d="M40 31h0"></path>
<path d="M252 31h0"></path>
<path d="M40 31h20"></path>
<g>
<path d="M60 31h68"></path>
<path d="M164 31h68"></path>
<rect x="128" y="20" width="36" height="22" rx="10" ry="10"></rect>
<text x="146" y="35">PL</text>
</g>
<path d="M232 31h20"></path>
<path d="M40 31a10 10 0 0 1 10 10v10a10 10 0 0 0 10 10"></path>
<g>
<path d="M60 61h8"></path>
<path d="M224 61h8"></path>
<rect x="68" y="50" width="156" height="22" rx="10" ry="10"></rect>
<text x="146" y="65">PublishedLanguage</text>
</g>
<path d="M232 61a10 10 0 0 0 10 -10v-10a10 10 0 0 1 10 -10"></path>
<path d="M40 31a10 10 0 0 1 10 10v40a10 10 0 0 0 10 10"></path>
<g>
<path d="M60 91h64"></path>
<path d="M168 91h64"></path>
<rect x="124" y="80" width="44" height="22" rx="10" ry="10"></rect>
<text x="146" y="95">OHS</text>
</g>
<path d="M232 91a10 10 0 0 0 10 -10v-40a10 10 0 0 1 10 -10"></path>
<path d="M40 31a10 10 0 0 1 10 10v70a10 10 0 0 0 10 10"></path>
<g>
<path d="M60 121h16"></path>
<path d="M216 121h16"></path>
<rect x="76" y="110" width="140" height="22" rx="10" ry="10"></rect>
<text x="146" y="125">OpenHostService</text>
</g>
<path d="M232 121a10 10 0 0 0 10 -10v-70a10 10 0 0 1 10 -10"></path>
<path d="M40 31a10 10 0 0 1 10 10v100a10 10 0 0 0 10 10"></path>
<g>
<path d="M60 151h68"></path>
<path d="M164 151h68"></path>
<rect x="128" y="140" width="36" height="22" rx="10" ry="10"></rect>
<text x="146" y="155">CF</text>
</g>
<path d="M232 151a10 10 0 0 0 10 -10v-100a10 10 0 0 1 10 -10"></path>
<path d="M40 31a10 10 0 0 1 10 10v130a10 10 0 0 0 10 10"></path>
<g>
<path d="M60 181h36"></path>
<path d="M196 181h36"></path>
<rect x="96" y="170" width="100" height="22" rx="10" ry="10"></rect>
<text x="146" y="185">Conformist</text>
</g>
<path d="M232 181a10 10 0 0 0 10 -10v-130a10 10 0 0 1 10 -10"></path>
<path d="M40 31a10 10 0 0 1 10 10v160a10 10 0 0 0 10 10"></path>
<g>
<path d="M60 211h64"></path>
<path d="M168 211h64"></path>
<rect x="124" y="200" width="44" height="22" rx="10" ry="10"></rect>
<text x="146" y="215">ACL</text>
</g>
<path d="M232 211a10 10 0 0 0 10 -10v-160a10 10 0 0 1 10 -10"></path>
<path d="M40 31a10 10 0 0 1 10 10v190a10 10 0 0 0 10 10"></path>
<g>
<path d="M60 241h0"></path>
<path d="M232 241h0"></path>
<rect x="60" y="230" width="172" height="22" rx="10" ry="10"></rect>
<text x="146" y="245">AntiCorruptionLayer</text>
</g>
<path d="M232 241a10 10 0 0 0 10 -10v-190a10 10 0 0 1 10 -10"></path>
<path d="M40 31a10 10 0 0 1 10 10v220a10 10 0 0 0 10 10"></path>
<g>
<path d="M60 271h72"></path>
<path d="M160 271h72"></path>
<rect x="132" y="260" width="28" height="22" rx="10" ry="10"></rect>
<text x="146" y="275">P</text>
</g>
<path d="M232 271a10 10 0 0 0 10 -10v-220a10 10 0 0 1 10 -10"></path>
<path d="M40 31a10 10 0 0 1 10 10v250a10 10 0 0 0 10 10"></path>
<g>
<path d="M60 301h32"></path>
<path d="M200 301h32"></path>
<rect x="92" y="290" width="108" height="22" rx="10" ry="10"></rect>
<text x="146" y="305">Partnership</text>
</g>
<path d="M232 301a10 10 0 0 0 10 -10v-250a10 10 0 0 1 10 -10"></path>
<path d="M40 31a10 10 0 0 1 10 10v280a10 10 0 0 0 10 10"></path>
<g>
<path d="M60 331h68"></path>
<path d="M164 331h68"></path>
<rect x="128" y="320" width="36" height="22" rx="10" ry="10"></rect>
<text x="146" y="335">SK</text>
</g>
<path d="M232 331a10 10 0 0 0 10 -10v-280a10 10 0 0 1 10 -10"></path>
<path d="M40 31a10 10 0 0 1 10 10v310a10 10 0 0 0 10 10"></path>
<g>
<path d="M60 361h28"></path>
<path d="M204 361h28"></path>
<rect x="88" y="350" width="116" height="22" rx="10" ry="10"></rect>
<text x="146" y="365">SharedKernel</text>
</g>
<path d="M232 361a10 10 0 0 0 10 -10v-310a10 10 0 0 1 10 -10"></path>
<path d="M40 31a10 10 0 0 1 10 10v340a10 10 0 0 0 10 10"></path>
<g>
<path d="M60 391h60"></path>
<path d="M172 391h60"></path>
<rect x="120" y="380" width="52" height="22" rx="10" ry="10"></rect>
<text x="146" y="395">BBoM</text>
</g>
<path d="M232 391a10 10 0 0 0 10 -10v-340a10 10 0 0 1 10 -10"></path>
<path d="M40 31a10 10 0 0 1 10 10v370a10 10 0 0 0 10 10"></path>
<g>
<path d="M60 421h28"></path>
<path d="M204 421h28"></path>
<rect x="88" y="410" width="116" height="22" rx="10" ry="10"></rect>
<text x="146" y="425">BigBallOfMud</text>
</g>
<path d="M232 421a10 10 0 0 0 10 -10v-370a10 10 0 0 1 10 -10"></path>
</g>
<path d="M 252 31 h 20 m -10 -10 v 20 m 10 -20 v 20"></path>
</g>
</svg>
