<svg data-rule="MetadataEntry" class="railroad-diagram railroad-svg" xmlns="http://www.w3.org/2000/svg" width="433" height="62" viewBox="0 0 433 62">

<g transform="translate(.5 .5)">
<path d="M 20 21 v 20 m 10 -20 v 20 m -10 -10 h 20.5"></path>
<g>
<path d="M40 31h0"></path>
<path d="M392 31h0"></path>
<path d="M40 31h10"></path>
<g>
<path d="M50 31h0"></path>
<path d="M174 31h0"></path>
<rect x="50" y="20" width="124" height="22"></rect>
<text x="112" y="35">QualifiedName</text>
</g>
<path d="M174 31h10"></path>
<path d="M184 31h10"></path>
<g>
<path d="M194 31h0"></path>
<path d="M294 31h0"></path>
<rect x="194" y="20" width="100" height="22"></rect>
<text x="244" y="35">Assignment</text>
</g>
<path d="M294 31h10"></path>
<path d="M304 31h10"></path>
<g>
<path d="M314 31h0"></path>
<path d="M382 31h0"></path>
<rect x="314" y="20" width="68" height="22"></rect>
<text x="348" y="35">STRING</text>
</g>
<path d="M382 31h10"></path>
</g>
<path d="M 392 31 h 20 m -10 -10 v 20 m 10 -20 v 20"></path>
</g>
</svg>
