<svg data-rule="ObjectMap" class="railroad-diagram railroad-svg" xmlns="http://www.w3.org/2000/svg" width="221" height="92" viewBox="0 0 221 92">

<g transform="translate(.5 .5)">
<path d="M 20 21 v 20 m 10 -20 v 20 m -10 -10 h 20.5"></path>
<g>
<path d="M40 31h0"></path>
<path d="M180 31h0"></path>
<path d="M40 31h20"></path>
<g>
<path d="M60 31h0"></path>
<path d="M160 31h0"></path>
<rect x="60" y="20" width="100" height="22"></rect>
<text x="110" y="35">ContextMap</text>
</g>
<path d="M160 31h20"></path>
<path d="M40 31a10 10 0 0 1 10 10v10a10 10 0 0 0 10 10"></path>
<g>
<path d="M60 61h4"></path>
<path d="M156 61h4"></path>
<rect x="64" y="50" width="92" height="22"></rect>
<text x="110" y="65">DomainMap</text>
</g>
<path d="M160 61a10 10 0 0 0 10 -10v-10a10 10 0 0 1 10 -10"></path>
</g>
<path d="M 180 31 h 20 m -10 -10 v 20 m 10 -20 v 20"></path>
</g>
</svg>
