<svg data-rule="Policy" class="railroad-diagram railroad-svg" xmlns="http://www.w3.org/2000/svg" width="733" height="102" viewBox="0 0 733 102">

<g transform="translate(.5 .5)">
<path d="M 20 31 v 20 m 10 -20 v 20 m -10 -10 h 20.5"></path>
<g>
<path d="M40 41h0"></path>
<path d="M692 41h0"></path>
<g>
<path d="M40 41h0"></path>
<path d="M148 41h0"></path>
<path d="M40 41h20"></path>
<g>
<path d="M60 41h0"></path>
<path d="M128 41h0"></path>
<rect x="60" y="30" width="68" height="22" rx="10" ry="10"></rect>
<text x="94" y="45">Policy</text>
</g>
<path d="M128 41h20"></path>
<path d="M40 41a10 10 0 0 1 10 10v10a10 10 0 0 0 10 10"></path>
<g>
<path d="M60 71h0"></path>
<path d="M128 71h0"></path>
<rect x="60" y="60" width="68" height="22" rx="10" ry="10"></rect>
<text x="94" y="75">policy</text>
</g>
<path d="M128 71a10 10 0 0 0 10 -10v-10a10 10 0 0 1 10 -10"></path>
</g>
<g>
<path d="M148 41h0"></path>
<path d="M428 41h0"></path>
<path d="M148 41a10 10 0 0 0 10 -10v0a10 10 0 0 1 10 -10"></path>
<g>
<path d="M168 21h240"></path>
</g>
<path d="M408 21a10 10 0 0 1 10 10v0a10 10 0 0 0 10 10"></path>
<path d="M148 41h20"></path>
<g>
<path d="M168 41h0"></path>
<path d="M408 41h0"></path>
<g>
<path d="M168 41h0"></path>
<path d="M408 41h0"></path>
<path d="M168 41h10"></path>
<g>
<path d="M178 41h0"></path>
<path d="M206 41h0"></path>
<rect x="178" y="30" width="28" height="22" rx="10" ry="10"></rect>
<text x="192" y="45">&#91;</text>
</g>
<path d="M206 41h10"></path>
<path d="M216 41h10"></path>
<g>
<path d="M226 41h0"></path>
<path d="M350 41h0"></path>
<rect x="226" y="30" width="124" height="22"></rect>
<text x="288" y="45">QualifiedName</text>
</g>
<path d="M350 41h10"></path>
<path d="M360 41h10"></path>
<g>
<path d="M370 41h0"></path>
<path d="M398 41h0"></path>
<rect x="370" y="30" width="28" height="22" rx="10" ry="10"></rect>
<text x="384" y="45">&#93;</text>
</g>
<path d="M398 41h10"></path>
</g>
</g>
<path d="M408 41h20"></path>
</g>
<path d="M428 41h10"></path>
<g>
<path d="M438 41h0"></path>
<path d="M474 41h0"></path>
<rect x="438" y="30" width="36" height="22"></rect>
<text x="456" y="45">ID</text>
</g>
<path d="M474 41h10"></path>
<path d="M484 41h10"></path>
<g>
<path d="M494 41h0"></path>
<path d="M594 41h0"></path>
<rect x="494" y="30" width="100" height="22"></rect>
<text x="544" y="45">Assignment</text>
</g>
<path d="M594 41h10"></path>
<path d="M604 41h10"></path>
<g>
<path d="M614 41h0"></path>
<path d="M682 41h0"></path>
<rect x="614" y="30" width="68" height="22"></rect>
<text x="648" y="45">STRING</text>
</g>
<path d="M682 41h10"></path>
</g>
<path d="M 692 41 h 20 m -10 -10 v 20 m 10 -20 v 20"></path>
</g>
</svg>
