<svg data-rule="Relationship" class="railroad-diagram railroad-svg" xmlns="http://www.w3.org/2000/svg" width="325" height="92" viewBox="0 0 325 92">

<g transform="translate(.5 .5)">
<path d="M 20 21 v 20 m 10 -20 v 20 m -10 -10 h 20.5"></path>
<g>
<path d="M40 31h0"></path>
<path d="M284 31h0"></path>
<path d="M40 31h20"></path>
<g>
<path d="M60 31h0"></path>
<path d="M264 31h0"></path>
<rect x="60" y="20" width="204" height="22"></rect>
<text x="162" y="35">DirectionalRelationship</text>
</g>
<path d="M264 31h20"></path>
<path d="M40 31a10 10 0 0 1 10 10v10a10 10 0 0 0 10 10"></path>
<g>
<path d="M60 61h8"></path>
<path d="M256 61h8"></path>
<rect x="68" y="50" width="188" height="22"></rect>
<text x="162" y="65">SymmetricRelationship</text>
</g>
<path d="M264 61a10 10 0 0 0 10 -10v-10a10 10 0 0 1 10 -10"></path>
</g>
<path d="M 284 31 h 20 m -10 -10 v 20 m 10 -20 v 20"></path>
</g>
</svg>
