<svg data-rule="RelationshipArrow" class="railroad-diagram railroad-svg" xmlns="http://www.w3.org/2000/svg" width="165" height="152" viewBox="0 0 165 152">

<g transform="translate(.5 .5)">
<path d="M 20 21 v 20 m 10 -20 v 20 m -10 -10 h 20.5"></path>
<g>
<path d="M40 31h0"></path>
<path d="M124 31h0"></path>
<path d="M40 31h20"></path>
<g>
<path d="M60 31h0"></path>
<path d="M104 31h0"></path>
<rect x="60" y="20" width="44" height="22" rx="10" ry="10"></rect>
<text x="82" y="35">&#60;-></text>
</g>
<path d="M104 31h20"></path>
<path d="M40 31a10 10 0 0 1 10 10v10a10 10 0 0 0 10 10"></path>
<g>
<path d="M60 61h4"></path>
<path d="M100 61h4"></path>
<rect x="64" y="50" width="36" height="22" rx="10" ry="10"></rect>
<text x="82" y="65">-></text>
</g>
<path d="M104 61a10 10 0 0 0 10 -10v-10a10 10 0 0 1 10 -10"></path>
<path d="M40 31a10 10 0 0 1 10 10v40a10 10 0 0 0 10 10"></path>
<g>
<path d="M60 91h4"></path>
<path d="M100 91h4"></path>
<rect x="64" y="80" width="36" height="22" rx="10" ry="10"></rect>
<text x="82" y="95">&#60;-</text>
</g>
<path d="M104 91a10 10 0 0 0 10 -10v-40a10 10 0 0 1 10 -10"></path>
<path d="M40 31a10 10 0 0 1 10 10v70a10 10 0 0 0 10 10"></path>
<g>
<path d="M60 121h4"></path>
<path d="M100 121h4"></path>
<rect x="64" y="110" width="36" height="22" rx="10" ry="10"></rect>
<text x="82" y="125">>&#60;</text>
</g>
<path d="M104 121a10 10 0 0 0 10 -10v-70a10 10 0 0 1 10 -10"></path>
</g>
<path d="M 124 31 h 20 m -10 -10 v 20 m 10 -20 v 20"></path>
</g>
</svg>
