<svg data-rule="Relationship" class="railroad-diagram railroad-svg" xmlns="http://www.w3.org/2000/svg" width="2161" height="91" viewBox="0 0 2161 91">

<g transform="translate(.5 .5)">
<path d="M 20 41 v 20 m 10 -20 v 20 m -10 -10 h 20.5"></path>
<g>
<path d="M40 51h0"></path>
<path d="M2120 51h0"></path>
<g>
<path d="M40 51h0"></path>
<path d="M652 51h0"></path>
<path d="M40 51a10 10 0 0 0 10 -10v-9a10 10 0 0 1 10 -10"></path>
<g>
<path d="M60 22h572"></path>
</g>
<path d="M632 22a10 10 0 0 1 10 10v9a10 10 0 0 0 10 10"></path>
<path d="M40 51h20"></path>
<g>
<path d="M60 51h0"></path>
<path d="M632 51h0"></path>
<g>
<path d="M60 51h0"></path>
<path d="M632 51h0"></path>
<path d="M60 51h10"></path>
<g>
<path d="M70 51h0"></path>
<path d="M98 51h0"></path>
<rect x="70" y="40" width="28" height="22" rx="10" ry="10"></rect>
<text x="84" y="55">&#91;</text>
</g>
<path d="M98 51h10"></path>
<path d="M108 51h10"></path>
<g>
<path d="M118 51h0"></path>
<path d="M282 51h0"></path>
<rect x="118" y="40" width="164" height="22"></rect>
<text x="200" y="55">IntegrationPattern</text>
</g>
<path d="M282 51h10"></path>
<g>
<path d="M292 51h0"></path>
<path d="M584 51h0"></path>
<path d="M292 51a10 10 0 0 0 10 -10v0a10 10 0 0 1 10 -10"></path>
<g>
<path d="M312 31h252"></path>
</g>
<path d="M564 31a10 10 0 0 1 10 10v0a10 10 0 0 0 10 10"></path>
<path d="M292 51h20"></path>
<g>
<path d="M312 51h0"></path>
<path d="M564 51h0"></path>
<path d="M312 51h10"></path>
<g>
<path d="M322 51h0"></path>
<path d="M554 51h0"></path>
<g>
<path d="M322 51h0"></path>
<path d="M554 51h0"></path>
<path d="M322 51h10"></path>
<g>
<path d="M332 51h0"></path>
<path d="M360 51h0"></path>
<rect x="332" y="40" width="28" height="22" rx="10" ry="10"></rect>
<text x="346" y="55">,</text>
</g>
<path d="M360 51h10"></path>
<path d="M370 51h10"></path>
<g>
<path d="M380 51h0"></path>
<path d="M544 51h0"></path>
<rect x="380" y="40" width="164" height="22"></rect>
<text x="462" y="55">IntegrationPattern</text>
</g>
<path d="M544 51h10"></path>
</g>
</g>
<path d="M554 51h10"></path>
<path d="M322 51a10 10 0 0 0 -10 10v0a10 10 0 0 0 10 10"></path>
<g>
<path d="M322 71h232"></path>
</g>
<path d="M554 71a10 10 0 0 0 10 -10v0a10 10 0 0 0 -10 -10"></path>
</g>
<path d="M564 51h20"></path>
</g>
<path d="M584 51h10"></path>
<g>
<path d="M594 51h0"></path>
<path d="M622 51h0"></path>
<rect x="594" y="40" width="28" height="22" rx="10" ry="10"></rect>
<text x="608" y="55">&#93;</text>
</g>
<path d="M622 51h10"></path>
</g>
</g>
<path d="M632 51h20"></path>
</g>
<path d="M652 51h10"></path>
<g>
<path d="M662 51h0"></path>
<path d="M818 51h0"></path>
<rect x="662" y="40" width="156" height="22"></rect>
<text x="740" y="55">BoundedContextRef</text>
</g>
<path d="M818 51h10"></path>
<path d="M828 51h10"></path>
<g>
<path d="M838 51h0"></path>
<path d="M994 51h0"></path>
<rect x="838" y="40" width="156" height="22"></rect>
<text x="916" y="55">RelationshipArrow</text>
</g>
<path d="M994 51h10"></path>
<g>
<path d="M1004 51h0"></path>
<path d="M1616 51h0"></path>
<path d="M1004 51a10 10 0 0 0 10 -10v-9a10 10 0 0 1 10 -10"></path>
<g>
<path d="M1024 22h572"></path>
</g>
<path d="M1596 22a10 10 0 0 1 10 10v9a10 10 0 0 0 10 10"></path>
<path d="M1004 51h20"></path>
<g>
<path d="M1024 51h0"></path>
<path d="M1596 51h0"></path>
<g>
<path d="M1024 51h0"></path>
<path d="M1596 51h0"></path>
<path d="M1024 51h10"></path>
<g>
<path d="M1034 51h0"></path>
<path d="M1062 51h0"></path>
<rect x="1034" y="40" width="28" height="22" rx="10" ry="10"></rect>
<text x="1048" y="55">&#91;</text>
</g>
<path d="M1062 51h10"></path>
<path d="M1072 51h10"></path>
<g>
<path d="M1082 51h0"></path>
<path d="M1246 51h0"></path>
<rect x="1082" y="40" width="164" height="22"></rect>
<text x="1164" y="55">IntegrationPattern</text>
</g>
<path d="M1246 51h10"></path>
<g>
<path d="M1256 51h0"></path>
<path d="M1548 51h0"></path>
<path d="M1256 51a10 10 0 0 0 10 -10v0a10 10 0 0 1 10 -10"></path>
<g>
<path d="M1276 31h252"></path>
</g>
<path d="M1528 31a10 10 0 0 1 10 10v0a10 10 0 0 0 10 10"></path>
<path d="M1256 51h20"></path>
<g>
<path d="M1276 51h0"></path>
<path d="M1528 51h0"></path>
<path d="M1276 51h10"></path>
<g>
<path d="M1286 51h0"></path>
<path d="M1518 51h0"></path>
<g>
<path d="M1286 51h0"></path>
<path d="M1518 51h0"></path>
<path d="M1286 51h10"></path>
<g>
<path d="M1296 51h0"></path>
<path d="M1324 51h0"></path>
<rect x="1296" y="40" width="28" height="22" rx="10" ry="10"></rect>
<text x="1310" y="55">,</text>
</g>
<path d="M1324 51h10"></path>
<path d="M1334 51h10"></path>
<g>
<path d="M1344 51h0"></path>
<path d="M1508 51h0"></path>
<rect x="1344" y="40" width="164" height="22"></rect>
<text x="1426" y="55">IntegrationPattern</text>
</g>
<path d="M1508 51h10"></path>
</g>
</g>
<path d="M1518 51h10"></path>
<path d="M1286 51a10 10 0 0 0 -10 10v0a10 10 0 0 0 10 10"></path>
<g>
<path d="M1286 71h232"></path>
</g>
<path d="M1518 71a10 10 0 0 0 10 -10v0a10 10 0 0 0 -10 -10"></path>
</g>
<path d="M1528 51h20"></path>
</g>
<path d="M1548 51h10"></path>
<g>
<path d="M1558 51h0"></path>
<path d="M1586 51h0"></path>
<rect x="1558" y="40" width="28" height="22" rx="10" ry="10"></rect>
<text x="1572" y="55">&#93;</text>
</g>
<path d="M1586 51h10"></path>
</g>
</g>
<path d="M1596 51h20"></path>
</g>
<path d="M1616 51h10"></path>
<g>
<path d="M1626 51h0"></path>
<path d="M1782 51h0"></path>
<rect x="1626" y="40" width="156" height="22"></rect>
<text x="1704" y="55">BoundedContextRef</text>
</g>
<path d="M1782 51h10"></path>
<g>
<path d="M1792 51h0"></path>
<path d="M2120 51h0"></path>
<path d="M1792 51a10 10 0 0 0 10 -10v0a10 10 0 0 1 10 -10"></path>
<g>
<path d="M1812 31h288"></path>
</g>
<path d="M2100 31a10 10 0 0 1 10 10v0a10 10 0 0 0 10 10"></path>
<path d="M1792 51h20"></path>
<g>
<path d="M1812 51h0"></path>
<path d="M2100 51h0"></path>
<g>
<path d="M1812 51h0"></path>
<path d="M2100 51h0"></path>
<path d="M1812 51h10"></path>
<g>
<path d="M1822 51h0"></path>
<path d="M1922 51h0"></path>
<rect x="1822" y="40" width="100" height="22"></rect>
<text x="1872" y="55">Assignment</text>
</g>
<path d="M1922 51h10"></path>
<path d="M1932 51h10"></path>
<g>
<path d="M1942 51h0"></path>
<path d="M2090 51h0"></path>
<rect x="1942" y="40" width="148" height="22"></rect>
<text x="2016" y="55">RelationshipType</text>
</g>
<path d="M2090 51h10"></path>
</g>
</g>
<path d="M2100 51h20"></path>
</g>
</g>
<path d="M 2120 51 h 20 m -10 -10 v 20 m 10 -20 v 20"></path>
</g>
</svg>
