<svg data-rule="RelationshipType" data-rule="RelationshipType" class="railroad-diagram railroad-svg" xmlns="http://www.w3.org/2000/svg" width="285" height="182" viewBox="0 0 285 182">

<g transform="translate(.5 .5)">
<path d="M 20 21 v 20 m 10 -20 v 20 m -10 -10 h 20.5"></path>
<g>
<path d="M40 31h0"></path>
<path d="M244 31h0"></path>
<path d="M40 31h20"></path>
<g>
<path d="M60 31h28"></path>
<path d="M196 31h28"></path>
<rect x="88" y="20" width="108" height="22" rx="10" ry="10"></rect>
<text x="142" y="35">Partnership</text>
</g>
<path d="M224 31h20"></path>
<path d="M40 31a10 10 0 0 1 10 10v10a10 10 0 0 0 10 10"></path>
<g>
<path d="M60 61h24"></path>
<path d="M200 61h24"></path>
<rect x="84" y="50" width="116" height="22" rx="10" ry="10"></rect>
<text x="142" y="65">SharedKernel</text>
</g>
<path d="M224 61a10 10 0 0 0 10 -10v-10a10 10 0 0 1 10 -10"></path>
<path d="M40 31a10 10 0 0 1 10 10v40a10 10 0 0 0 10 10"></path>
<g>
<path d="M60 91h8"></path>
<path d="M216 91h8"></path>
<rect x="68" y="80" width="148" height="22" rx="10" ry="10"></rect>
<text x="142" y="95">CustomerSupplier</text>
</g>
<path d="M224 91a10 10 0 0 0 10 -10v-40a10 10 0 0 1 10 -10"></path>
<path d="M40 31a10 10 0 0 1 10 10v70a10 10 0 0 0 10 10"></path>
<g>
<path d="M60 121h0"></path>
<path d="M224 121h0"></path>
<rect x="60" y="110" width="164" height="22" rx="10" ry="10"></rect>
<text x="142" y="125">UpstreamDownstream</text>
</g>
<path d="M224 121a10 10 0 0 0 10 -10v-70a10 10 0 0 1 10 -10"></path>
<path d="M40 31a10 10 0 0 1 10 10v100a10 10 0 0 0 10 10"></path>
<g>
<path d="M60 151h24"></path>
<path d="M200 151h24"></path>
<rect x="84" y="140" width="116" height="22" rx="10" ry="10"></rect>
<text x="142" y="155">SeparateWays</text>
</g>
<path d="M224 151a10 10 0 0 0 10 -10v-100a10 10 0 0 1 10 -10"></path>
</g>
<path d="M 244 31 h 20 m -10 -10 v 20 m 10 -20 v 20"></path>
</g>
</svg>
