<svg data-rule="SidePattern" class="railroad-diagram railroad-svg" xmlns="http://www.w3.org/2000/svg" width="333" height="452" viewBox="0 0 333 452">

<g transform="translate(.5 .5)">
<path d="M 20 21 v 20 m 10 -20 v 20 m -10 -10 h 20.5"></path>
<g>
<path d="M40 31h0"></path>
<path d="M292 31h0"></path>
<path d="M40 31h20"></path>
<g>
<path d="M60 31h16"></path>
<path d="M256 31h16"></path>
<g>
<path d="M76 31h0"></path>
<path d="M256 31h0"></path>
<path d="M76 31h20"></path>
<g>
<path d="M96 31h48"></path>
<path d="M188 31h48"></path>
<rect x="144" y="20" width="44" height="22" rx="10" ry="10"></rect>
<text x="166" y="35">OHS</text>
</g>
<path d="M236 31h20"></path>
<path d="M76 31a10 10 0 0 1 10 10v10a10 10 0 0 0 10 10"></path>
<g>
<path d="M96 61h0"></path>
<path d="M236 61h0"></path>
<rect x="96" y="50" width="140" height="22" rx="10" ry="10"></rect>
<text x="166" y="65">OpenHostService</text>
</g>
<path d="M236 61a10 10 0 0 0 10 -10v-10a10 10 0 0 1 10 -10"></path>
</g>
</g>
<path d="M272 31h20"></path>
<path d="M40 31a10 10 0 0 1 10 10v40a10 10 0 0 0 10 10"></path>
<g>
<path d="M60 91h8"></path>
<path d="M264 91h8"></path>
<g>
<path d="M68 91h0"></path>
<path d="M264 91h0"></path>
<path d="M68 91h20"></path>
<g>
<path d="M88 91h60"></path>
<path d="M184 91h60"></path>
<rect x="148" y="80" width="36" height="22" rx="10" ry="10"></rect>
<text x="166" y="95">PL</text>
</g>
<path d="M244 91h20"></path>
<path d="M68 91a10 10 0 0 1 10 10v10a10 10 0 0 0 10 10"></path>
<g>
<path d="M88 121h0"></path>
<path d="M244 121h0"></path>
<rect x="88" y="110" width="156" height="22" rx="10" ry="10"></rect>
<text x="166" y="125">PublishedLanguage</text>
</g>
<path d="M244 121a10 10 0 0 0 10 -10v-10a10 10 0 0 1 10 -10"></path>
</g>
</g>
<path d="M272 91a10 10 0 0 0 10 -10v-40a10 10 0 0 1 10 -10"></path>
<path d="M40 31a10 10 0 0 1 10 10v100a10 10 0 0 0 10 10"></path>
<g>
<path d="M60 151h36"></path>
<path d="M236 151h36"></path>
<g>
<path d="M96 151h0"></path>
<path d="M236 151h0"></path>
<path d="M96 151h20"></path>
<g>
<path d="M116 151h32"></path>
<path d="M184 151h32"></path>
<rect x="148" y="140" width="36" height="22" rx="10" ry="10"></rect>
<text x="166" y="155">CF</text>
</g>
<path d="M216 151h20"></path>
<path d="M96 151a10 10 0 0 1 10 10v10a10 10 0 0 0 10 10"></path>
<g>
<path d="M116 181h0"></path>
<path d="M216 181h0"></path>
<rect x="116" y="170" width="100" height="22" rx="10" ry="10"></rect>
<text x="166" y="185">Conformist</text>
</g>
<path d="M216 181a10 10 0 0 0 10 -10v-10a10 10 0 0 1 10 -10"></path>
</g>
</g>
<path d="M272 151a10 10 0 0 0 10 -10v-100a10 10 0 0 1 10 -10"></path>
<path d="M40 31a10 10 0 0 1 10 10v160a10 10 0 0 0 10 10"></path>
<g>
<path d="M60 211h0"></path>
<path d="M272 211h0"></path>
<g>
<path d="M60 211h0"></path>
<path d="M272 211h0"></path>
<path d="M60 211h20"></path>
<g>
<path d="M80 211h64"></path>
<path d="M188 211h64"></path>
<rect x="144" y="200" width="44" height="22" rx="10" ry="10"></rect>
<text x="166" y="215">ACL</text>
</g>
<path d="M252 211h20"></path>
<path d="M60 211a10 10 0 0 1 10 10v10a10 10 0 0 0 10 10"></path>
<g>
<path d="M80 241h0"></path>
<path d="M252 241h0"></path>
<rect x="80" y="230" width="172" height="22" rx="10" ry="10"></rect>
<text x="166" y="245">AntiCorruptionLayer</text>
</g>
<path d="M252 241a10 10 0 0 0 10 -10v-10a10 10 0 0 1 10 -10"></path>
</g>
</g>
<path d="M272 211a10 10 0 0 0 10 -10v-160a10 10 0 0 1 10 -10"></path>
<path d="M40 31a10 10 0 0 1 10 10v220a10 10 0 0 0 10 10"></path>
<g>
<path d="M60 271h44"></path>
<path d="M228 271h44"></path>
<g>
<path d="M104 271h0"></path>
<path d="M228 271h0"></path>
<path d="M104 271h20"></path>
<g>
<path d="M124 271h28"></path>
<path d="M180 271h28"></path>
<rect x="152" y="260" width="28" height="22" rx="10" ry="10"></rect>
<text x="166" y="275">S</text>
</g>
<path d="M208 271h20"></path>
<path d="M104 271a10 10 0 0 1 10 10v10a10 10 0 0 0 10 10"></path>
<g>
<path d="M124 301h0"></path>
<path d="M208 301h0"></path>
<rect x="124" y="290" width="84" height="22" rx="10" ry="10"></rect>
<text x="166" y="305">Supplier</text>
</g>
<path d="M208 301a10 10 0 0 0 10 -10v-10a10 10 0 0 1 10 -10"></path>
</g>
</g>
<path d="M272 271a10 10 0 0 0 10 -10v-220a10 10 0 0 1 10 -10"></path>
<path d="M40 31a10 10 0 0 1 10 10v280a10 10 0 0 0 10 10"></path>
<g>
<path d="M60 331h44"></path>
<path d="M228 331h44"></path>
<g>
<path d="M104 331h0"></path>
<path d="M228 331h0"></path>
<path d="M104 331h20"></path>
<g>
<path d="M124 331h28"></path>
<path d="M180 331h28"></path>
<rect x="152" y="320" width="28" height="22" rx="10" ry="10"></rect>
<text x="166" y="335">C</text>
</g>
<path d="M208 331h20"></path>
<path d="M104 331a10 10 0 0 1 10 10v10a10 10 0 0 0 10 10"></path>
<g>
<path d="M124 361h0"></path>
<path d="M208 361h0"></path>
<rect x="124" y="350" width="84" height="22" rx="10" ry="10"></rect>
<text x="166" y="365">Customer</text>
</g>
<path d="M208 361a10 10 0 0 0 10 -10v-10a10 10 0 0 1 10 -10"></path>
</g>
</g>
<path d="M272 331a10 10 0 0 0 10 -10v-280a10 10 0 0 1 10 -10"></path>
<path d="M40 31a10 10 0 0 1 10 10v340a10 10 0 0 0 10 10"></path>
<g>
<path d="M60 391h28"></path>
<path d="M244 391h28"></path>
<g>
<path d="M88 391h0"></path>
<path d="M244 391h0"></path>
<path d="M88 391h20"></path>
<g>
<path d="M108 391h32"></path>
<path d="M192 391h32"></path>
<rect x="140" y="380" width="52" height="22" rx="10" ry="10"></rect>
<text x="166" y="395">BBoM</text>
</g>
<path d="M224 391h20"></path>
<path d="M88 391a10 10 0 0 1 10 10v10a10 10 0 0 0 10 10"></path>
<g>
<path d="M108 421h0"></path>
<path d="M224 421h0"></path>
<rect x="108" y="410" width="116" height="22" rx="10" ry="10"></rect>
<text x="166" y="425">BigBallOfMud</text>
</g>
<path d="M224 421a10 10 0 0 0 10 -10v-10a10 10 0 0 1 10 -10"></path>
</g>
</g>
<path d="M272 391a10 10 0 0 0 10 -10v-340a10 10 0 0 1 10 -10"></path>
</g>
<path d="M 292 31 h 20 m -10 -10 v 20 m 10 -20 v 20"></path>
</g>
</svg>
