<svg data-rule="StructureElement" class="railroad-diagram railroad-svg" xmlns="http://www.w3.org/2000/svg" width="301" height="122" viewBox="0 0 301 122">

<g transform="translate(.5 .5)">
<path d="M 20 21 v 20 m 10 -20 v 20 m -10 -10 h 20.5"></path>
<g>
<path d="M40 31h0"></path>
<path d="M260 31h0"></path>
<path d="M40 31h20"></path>
<g>
<path d="M60 31h64"></path>
<path d="M176 31h64"></path>
<rect x="124" y="20" width="52" height="22"></rect>
<text x="150" y="35">Type</text>
</g>
<path d="M240 31h20"></path>
<path d="M40 31a10 10 0 0 1 10 10v10a10 10 0 0 0 10 10"></path>
<g>
<path d="M60 61h44"></path>
<path d="M196 61h44"></path>
<rect x="104" y="50" width="92" height="22"></rect>
<text x="150" y="65">ObjectMap</text>
</g>
<path d="M240 61a10 10 0 0 0 10 -10v-10a10 10 0 0 1 10 -10"></path>
<path d="M40 31a10 10 0 0 1 10 10v40a10 10 0 0 0 10 10"></path>
<g>
<path d="M60 91h0"></path>
<path d="M240 91h0"></path>
<rect x="60" y="80" width="180" height="22"></rect>
<text x="150" y="95">NamespaceDeclaration</text>
</g>
<path d="M240 91a10 10 0 0 0 10 -10v-40a10 10 0 0 1 10 -10"></path>
</g>
<path d="M 260 31 h 20 m -10 -10 v 20 m 10 -20 v 20"></path>
</g>
</svg>
