<svg data-rule="SymmetricRelationship" class="railroad-diagram railroad-svg" xmlns="http://www.w3.org/2000/svg" width="737" height="92" viewBox="0 0 737 92">

<g transform="translate(.5 .5)">
<path d="M 20 21 v 20 m 10 -20 v 20 m -10 -10 h 20.5"></path>
<g>
<path d="M40 31h0"></path>
<path d="M696 31h0"></path>
<path d="M40 31h10"></path>
<g>
<path d="M50 31h0"></path>
<path d="M206 31h0"></path>
<rect x="50" y="20" width="156" height="22"></rect>
<text x="128" y="35">BoundedContextRef</text>
</g>
<path d="M206 31h10"></path>
<g>
<path d="M216 31h0"></path>
<path d="M520 31h0"></path>
<path d="M216 31h20"></path>
<g>
<path d="M236 31h0"></path>
<path d="M500 31h0"></path>
<path d="M236 31h10"></path>
<g>
<path d="M246 31h0"></path>
<path d="M274 31h0"></path>
<rect x="246" y="20" width="28" height="22" rx="10" ry="10"></rect>
<text x="260" y="35">&#91;</text>
</g>
<path d="M274 31h10"></path>
<path d="M284 31h10"></path>
<g>
<path d="M294 31h0"></path>
<path d="M442 31h0"></path>
<rect x="294" y="20" width="148" height="22"></rect>
<text x="368" y="35">SymmetricPattern</text>
</g>
<path d="M442 31h10"></path>
<path d="M452 31h10"></path>
<g>
<path d="M462 31h0"></path>
<path d="M490 31h0"></path>
<rect x="462" y="20" width="28" height="22" rx="10" ry="10"></rect>
<text x="476" y="35">&#93;</text>
</g>
<path d="M490 31h10"></path>
</g>
<path d="M500 31h20"></path>
<path d="M216 31a10 10 0 0 1 10 10v10a10 10 0 0 0 10 10"></path>
<g>
<path d="M236 61h114"></path>
<path d="M386 61h114"></path>
<rect x="350" y="50" width="36" height="22" rx="10" ry="10"></rect>
<text x="368" y="65">>&#60;</text>
</g>
<path d="M500 61a10 10 0 0 0 10 -10v-10a10 10 0 0 1 10 -10"></path>
</g>
<path d="M520 31h10"></path>
<g>
<path d="M530 31h0"></path>
<path d="M686 31h0"></path>
<rect x="530" y="20" width="156" height="22"></rect>
<text x="608" y="35">BoundedContextRef</text>
</g>
<path d="M686 31h10"></path>
</g>
<path d="M 696 31 h 20 m -10 -10 v 20 m 10 -20 v 20"></path>
</g>
</svg>
