<svg data-rule="SymmetricPattern" class="railroad-diagram railroad-svg" xmlns="http://www.w3.org/2000/svg" width="277" height="212" viewBox="0 0 277 212">

<g transform="translate(.5 .5)">
<path d="M 20 21 v 20 m 10 -20 v 20 m -10 -10 h 20.5"></path>
<g>
<path d="M40 31h0"></path>
<path d="M236 31h0"></path>
<path d="M40 31h20"></path>
<g>
<path d="M60 31h0"></path>
<path d="M216 31h0"></path>
<g>
<path d="M60 31h0"></path>
<path d="M216 31h0"></path>
<path d="M60 31h20"></path>
<g>
<path d="M80 31h40"></path>
<path d="M156 31h40"></path>
<rect x="120" y="20" width="36" height="22" rx="10" ry="10"></rect>
<text x="138" y="35">SK</text>
</g>
<path d="M196 31h20"></path>
<path d="M60 31a10 10 0 0 1 10 10v10a10 10 0 0 0 10 10"></path>
<g>
<path d="M80 61h0"></path>
<path d="M196 61h0"></path>
<rect x="80" y="50" width="116" height="22" rx="10" ry="10"></rect>
<text x="138" y="65">SharedKernel</text>
</g>
<path d="M196 61a10 10 0 0 0 10 -10v-10a10 10 0 0 1 10 -10"></path>
</g>
</g>
<path d="M216 31h20"></path>
<path d="M40 31a10 10 0 0 1 10 10v40a10 10 0 0 0 10 10"></path>
<g>
<path d="M60 91h4"></path>
<path d="M212 91h4"></path>
<g>
<path d="M64 91h0"></path>
<path d="M212 91h0"></path>
<path d="M64 91h20"></path>
<g>
<path d="M84 91h40"></path>
<path d="M152 91h40"></path>
<rect x="124" y="80" width="28" height="22" rx="10" ry="10"></rect>
<text x="138" y="95">P</text>
</g>
<path d="M192 91h20"></path>
<path d="M64 91a10 10 0 0 1 10 10v10a10 10 0 0 0 10 10"></path>
<g>
<path d="M84 121h0"></path>
<path d="M192 121h0"></path>
<rect x="84" y="110" width="108" height="22" rx="10" ry="10"></rect>
<text x="138" y="125">Partnership</text>
</g>
<path d="M192 121a10 10 0 0 0 10 -10v-10a10 10 0 0 1 10 -10"></path>
</g>
</g>
<path d="M216 91a10 10 0 0 0 10 -10v-40a10 10 0 0 1 10 -10"></path>
<path d="M40 31a10 10 0 0 1 10 10v100a10 10 0 0 0 10 10"></path>
<g>
<path d="M60 151h0"></path>
<path d="M216 151h0"></path>
<g>
<path d="M60 151h0"></path>
<path d="M216 151h0"></path>
<path d="M60 151h20"></path>
<g>
<path d="M80 151h40"></path>
<path d="M156 151h40"></path>
<rect x="120" y="140" width="36" height="22" rx="10" ry="10"></rect>
<text x="138" y="155">SW</text>
</g>
<path d="M196 151h20"></path>
<path d="M60 151a10 10 0 0 1 10 10v10a10 10 0 0 0 10 10"></path>
<g>
<path d="M80 181h0"></path>
<path d="M196 181h0"></path>
<rect x="80" y="170" width="116" height="22" rx="10" ry="10"></rect>
<text x="138" y="185">SeparateWays</text>
</g>
<path d="M196 181a10 10 0 0 0 10 -10v-10a10 10 0 0 1 10 -10"></path>
</g>
</g>
<path d="M216 151a10 10 0 0 0 10 -10v-100a10 10 0 0 1 10 -10"></path>
</g>
<path d="M 236 31 h 20 m -10 -10 v 20 m 10 -20 v 20"></path>
</g>
</svg>
