<svg data-rule="Team" class="railroad-diagram railroad-svg" xmlns="http://www.w3.org/2000/svg" width="209" height="62" viewBox="0 0 209 62">

<g transform="translate(.5 .5)">
<path d="M 20 21 v 20 m 10 -20 v 20 m -10 -10 h 20.5"></path>
<g>
<path d="M40 31h0"></path>
<path d="M168 31h0"></path>
<path d="M40 31h10"></path>
<g>
<path d="M50 31h0"></path>
<path d="M102 31h0"></path>
<rect x="50" y="20" width="52" height="22" rx="10" ry="10"></rect>
<text x="76" y="35">Team</text>
</g>
<path d="M102 31h10"></path>
<path d="M112 31h10"></path>
<g>
<path d="M122 31h0"></path>
<path d="M158 31h0"></path>
<rect x="122" y="20" width="36" height="22"></rect>
<text x="140" y="35">ID</text>
</g>
<path d="M158 31h10"></path>
</g>
<path d="M 168 31 h 20 m -10 -10 v 20 m 10 -20 v 20"></path>
</g>
</svg>
