<svg data-rule="Type" class="railroad-diagram railroad-svg" xmlns="http://www.w3.org/2000/svg" width="253" height="182" viewBox="0 0 253 182">

<g transform="translate(.5 .5)">
<path d="M 20 21 v 20 m 10 -20 v 20 m -10 -10 h 20.5"></path>
<g>
<path d="M40 31h0"></path>
<path d="M212 31h0"></path>
<path d="M40 31h20"></path>
<g>
<path d="M60 31h32"></path>
<path d="M160 31h32"></path>
<rect x="92" y="20" width="68" height="22"></rect>
<text x="126" y="35">Domain</text>
</g>
<path d="M192 31h20"></path>
<path d="M40 31a10 10 0 0 1 10 10v10a10 10 0 0 0 10 10"></path>
<g>
<path d="M60 61h0"></path>
<path d="M192 61h0"></path>
<rect x="60" y="50" width="132" height="22"></rect>
<text x="126" y="65">BoundedContext</text>
</g>
<path d="M192 61a10 10 0 0 0 10 -10v-10a10 10 0 0 1 10 -10"></path>
<path d="M40 31a10 10 0 0 1 10 10v40a10 10 0 0 0 10 10"></path>
<g>
<path d="M60 91h40"></path>
<path d="M152 91h40"></path>
<rect x="100" y="80" width="52" height="22"></rect>
<text x="126" y="95">Team</text>
</g>
<path d="M192 91a10 10 0 0 0 10 -10v-40a10 10 0 0 1 10 -10"></path>
<path d="M40 31a10 10 0 0 1 10 10v70a10 10 0 0 0 10 10"></path>
<g>
<path d="M60 121h0"></path>
<path d="M192 121h0"></path>
<rect x="60" y="110" width="132" height="22"></rect>
<text x="126" y="125">Classification</text>
</g>
<path d="M192 121a10 10 0 0 0 10 -10v-70a10 10 0 0 1 10 -10"></path>
<path d="M40 31a10 10 0 0 1 10 10v100a10 10 0 0 0 10 10"></path>
<g>
<path d="M60 151h24"></path>
<path d="M168 151h24"></path>
<rect x="84" y="140" width="84" height="22"></rect>
<text x="126" y="155">Metadata</text>
</g>
<path d="M192 151a10 10 0 0 0 10 -10v-100a10 10 0 0 1 10 -10"></path>
</g>
<path d="M 212 31 h 20 m -10 -10 v 20 m 10 -20 v 20"></path>
</g>
</svg>
